
<svg xmlns="http://www.w3.org/2000/svg" width="46" height="46" viewBox="0 0 46 46"><defs><style>.a{fill:#ff9315;}.b{fill:#fff;}</style></defs><g transform="translate(-1548 -691)"><path class="a" d="M23,0A23,23,0,1,1,0,23,23,23,0,0,1,23,0Z" transform="translate(1548 691)"/><path class="b" d="M172.619,22.645a.471.471,0,1,0-.246.908c1.566.424,2.267,1.02,2.267,1.423,0,.311-.425.795-1.617,1.221a15.634,15.634,0,0,1-9,0c-1.192-.426-1.617-.91-1.617-1.221,0-.4.7-1,2.268-1.423a.471.471,0,0,0-.245-.908c-1.912.517-2.964,1.345-2.964,2.332a1.723,1.723,0,0,0,.685,1.275,5.055,5.055,0,0,0,1.557.832,16.546,16.546,0,0,0,9.633,0,5.056,5.056,0,0,0,1.557-.832,1.724,1.724,0,0,0,.685-1.275c0-.987-1.052-1.815-2.963-2.331h0ZM166.594,23.7a2.578,2.578,0,0,0,1.933.906h0a2.559,2.559,0,0,0,1.932-.913,37.025,37.025,0,0,0,2.744-3.439c1.891-2.69,2.849-4.92,2.849-6.626a7.529,7.529,0,1,0-15.058,0c0,1.706.959,3.936,2.851,6.628a37.07,37.07,0,0,0,2.748,3.445h0Zm-.99-10.284a3.012,3.012,0,1,1,3.012,3.012,3.015,3.015,0,0,1-3.012-3.012ZM165.6,13.415Z" transform="translate(1402.004 696.903)"/></g></svg>