
<svg xmlns="http://www.w3.org/2000/svg" width="46" height="46" viewBox="0 0 46 46"><defs><style>.a{fill:#02c286;}.b{fill:#fff;}</style></defs><g transform="translate(-1611 -616)"><circle class="a" cx="23" cy="23" r="23" transform="translate(1611 616)"/><path class="b" d="M179.482,0l.067,0,.067,0c.025,0-.069,0-.044,0a8.948,8.948,0,0,1,6.174,15.339l-.119.115-.046.038-6.011,6.28-.021.025-.021-.025-6.011-6.28-.044-.038A8.948,8.948,0,0,1,179.53,0C179.551,0,179.458,0,179.482,0Zm.067,3.633a.4.4,0,0,0-.4.4v.828a4.038,4.038,0,0,0-3.613,3.613H174.7a.4.4,0,0,0,0,.807h.828a4.038,4.038,0,0,0,3.613,3.613v.828a.4.4,0,1,0,.807,0V12.9a4.038,4.038,0,0,0,3.613-3.613h.827a.4.4,0,0,0,0-.807h-.828a4.038,4.038,0,0,0-3.613-3.613V4.037a.4.4,0,0,0-.4-.4Zm-.4,2.044v.379a.4.4,0,0,0,.807,0V5.677a3.231,3.231,0,0,1,2.8,2.8h-.379a.4.4,0,0,0,0,.807h.379a3.231,3.231,0,0,1-2.8,2.8v-.379a.4.4,0,0,0-.807,0v.379a3.231,3.231,0,0,1-2.8-2.8h.379a.4.4,0,0,0,0-.807h-.379a3.231,3.231,0,0,1,2.8-2.8Zm.4,1.994a1.211,1.211,0,1,0,1.211,1.211A1.211,1.211,0,0,0,179.549,7.671Z" transform="translate(1454.333 628)"/></g></svg>