<svg id="Layer_1" data-name="Layer 1" xmlns="http://www.w3.org/2000/svg" viewBox="0 0 24 24"><defs><style>.cls-1,.cls-2{fill:none;stroke:#6100ff;stroke-linecap:round;stroke-linejoin:round;}.cls-1{stroke-width:0.66px;}.cls-2{stroke-width:1.5px;}</style></defs><path class="cls-1" d="M19.37,5.08a.72.72,0,0,0-.5-.51L16.72,4a.18.18,0,0,1-.12-.22.2.2,0,0,1,.12-.12l2.15-.55a.7.7,0,0,0,.5-.5L19.92.48a.18.18,0,0,1,.34,0l.55,2.15a.72.72,0,0,0,.51.5l2.14.55a.17.17,0,0,1,.12.22.16.16,0,0,1-.12.12l-2.14.55a.73.73,0,0,0-.51.51l-.55,2.14a.17.17,0,0,1-.22.12.18.18,0,0,1-.12-.12Z"/><path class="cls-1" d="M22.89.7V2.1"/><path class="cls-1" d="M23.59,1.4h-1.4"/><path class="cls-1" d="M17.29,5.6v.7"/><path class="cls-1" d="M17.64,6h-.7"/><path class="cls-2" d="M10,7.35H4.08A1.59,1.59,0,0,0,2.5,8.94V21.62A1.58,1.58,0,0,0,4.08,23.2h9.51a1.59,1.59,0,0,0,1.59-1.58V15.75"/><path class="cls-2" d="M.91,10.52H4.08"/><path class="cls-2" d="M.91,13.69H4.08"/><path class="cls-2" d="M.91,16.86H4.08"/><path class="cls-2" d="M.91,20H4.08"/><path class="cls-2" d="M16.27,10.23a1.69,1.69,0,0,0-2.38-2.39l-4,4a1.49,1.49,0,0,0-.4.67l-.67,2.28a.4.4,0,0,0,.27.49.41.41,0,0,0,.22,0l2.28-.66a1.7,1.7,0,0,0,.68-.41Z"/></svg>