<svg id="Layer_1" data-name="Layer 1" xmlns="http://www.w3.org/2000/svg" viewBox="0 0 24 24"><defs><style>.cls-1,.cls-2{fill:none;stroke:#6100ff;stroke-linecap:round;stroke-linejoin:round;}.cls-1{stroke-width:1.67px;}.cls-2{stroke-width:0.66px;}</style></defs><ellipse class="cls-1" cx="8.5" cy="8.82" rx="7.5" ry="2.5"/><path class="cls-1" d="M1,8.82V20.49C1,21.87,4.33,23,8.47,23A23.12,23.12,0,0,0,11,22.86"/><path class="cls-1" d="M16,8.82v2.5"/><path class="cls-1" d="M16,14.66l-2.5,4.16h3.33L14.33,23"/><path class="cls-1" d="M1,14.66c0,1.38,3.37,2.5,7.51,2.49.73,0,1.45,0,2.15-.1"/><path class="cls-2" d="M19.37,5.08a.72.72,0,0,0-.5-.51L16.72,4a.18.18,0,0,1-.12-.22.2.2,0,0,1,.12-.12l2.15-.55a.7.7,0,0,0,.5-.5L19.92.48a.18.18,0,0,1,.34,0l.55,2.15a.72.72,0,0,0,.51.5l2.14.55a.17.17,0,0,1,.12.22.16.16,0,0,1-.12.12l-2.14.55a.73.73,0,0,0-.51.51l-.55,2.14a.17.17,0,0,1-.22.12.18.18,0,0,1-.12-.12Z"/><path class="cls-2" d="M22.89.7V2.1"/><path class="cls-2" d="M23.59,1.4h-1.4"/><path class="cls-2" d="M17.29,5.6v.7"/><path class="cls-2" d="M17.64,6h-.7"/></svg>