<svg id="Layer_1" data-name="Layer 1" xmlns="http://www.w3.org/2000/svg" viewBox="0 0 24 24"><defs><style>.cls-1,.cls-2{fill:none;stroke:#6100ff;stroke-linecap:round;stroke-linejoin:round;}.cls-1{stroke-width:0.66px;}.cls-2{stroke-width:1.67px;}</style></defs><path class="cls-1" d="M19.37,5.08a.72.72,0,0,0-.5-.51L16.72,4a.18.18,0,0,1-.12-.22.2.2,0,0,1,.12-.12l2.15-.55a.7.7,0,0,0,.5-.5L19.92.48a.18.18,0,0,1,.34,0l.55,2.15a.72.72,0,0,0,.51.5l2.14.55a.17.17,0,0,1,.12.22.16.16,0,0,1-.12.12l-2.14.55a.73.73,0,0,0-.51.51l-.55,2.14a.17.17,0,0,1-.22.12.18.18,0,0,1-.12-.12Z"/><path class="cls-1" d="M22.89.7V2.1"/><path class="cls-1" d="M23.59,1.4h-1.4"/><path class="cls-1" d="M17.29,5.6v.7"/><path class="cls-1" d="M17.64,6h-.7"/><path class="cls-2" d="M2.61,23.17H15.06a1.77,1.77,0,0,0,1.77-1.78V9.84L12.39,5.4h-8A1.78,1.78,0,0,0,2.61,7.17v3.56"/><path class="cls-2" d="M11.5,5.4V9a1.78,1.78,0,0,0,1.78,1.78h3.55"/><path class="cls-2" d="M.84,17H9.72"/><path class="cls-2" d="M7.06,19.62,9.72,17,7.06,14.28"/></svg>