<svg id="Layer_1" data-name="Layer 1" xmlns="http://www.w3.org/2000/svg" viewBox="0 0 24 24"><defs><style>.cls-1{fill:#6100ff;}.cls-2{fill:none;stroke:#6100ff;stroke-linecap:round;stroke-linejoin:round;stroke-width:0.66px;}</style></defs><path class="cls-1" d="M13.13,5.41l.3.43a4.31,4.31,0,0,1,.71,1.44,1.75,1.75,0,0,1,0,1,5,5,0,0,1-.66,1.38,1.34,1.34,0,0,1-.39.36l-.07,0a.14.14,0,0,1-.21-.11l0-.21L12.69,8.5c0-.42,0-.83-.08-1.25,0,0,0-.06,0-.1a1.92,1.92,0,0,0-.46.33,1.68,1.68,0,0,0-.47,1.2,1.5,1.5,0,0,0,.16.62,4,4,0,0,0,.59.89A2.65,2.65,0,0,1,13,11.24c.11.39.25.78.36,1.17a3,3,0,0,1,.06.32l0,0a.87.87,0,0,1-.19-.1l-.87-.71-1.17-1a7.15,7.15,0,0,0-1.27-.87.35.35,0,0,0-.47.06L7.66,11.86,6.27,13.27,5.52,14l-.08.09.29,0c.35,0,.71,0,1.06.1s.93.12,1.39.19a10.54,10.54,0,0,1,1.76.44,4.26,4.26,0,0,1,1.12.58,1.54,1.54,0,0,1,.55.95,2.87,2.87,0,0,1-.18,1.45,7.55,7.55,0,0,1-.75,1.57,2.39,2.39,0,0,0-.13.21.22.22,0,0,1-.18.11l-.77.06-1,.08H8.52l0-.14c.17-.49.35-1,.51-1.47a4.43,4.43,0,0,0,.23-1.44,1.37,1.37,0,0,0-.1-.57,1,1,0,0,0-.63-.51,6.06,6.06,0,0,0-1.19-.28l-1.53-.29L5,15.06a.69.69,0,0,0-.2,0c-.1,0-.15.11-.14.24A.4.4,0,0,0,5,15.7l1.3.41c.33.1.66.21,1,.3a.88.88,0,0,1,.65.75,2.21,2.21,0,0,1,0,.85,10.16,10.16,0,0,1-.47,1.78.18.18,0,0,1-.17.13l-1,.12H6.27c-.06,0-.08,0-.06-.07.06-.24.13-.48.2-.72.11-.41.23-.81.35-1.22a.89.89,0,0,0,0-.46.64.64,0,0,0-.49-.47c-.34-.09-.69-.18-1-.25q-.76-.17-1.53-.3a5.09,5.09,0,0,0-.55,0,.24.24,0,0,0-.24.21.22.22,0,0,0,.14.24,4.26,4.26,0,0,0,1.2.41c.3,0,.6.09.89.15a.67.67,0,0,1,.49.34,1,1,0,0,1,.1.53,2.73,2.73,0,0,1-.49,1.34l-.33.48a.81.81,0,0,1-.44.31L3,21a1.68,1.68,0,0,1-1-.05A3.16,3.16,0,0,1,.16,19.37a1.1,1.1,0,0,1,.1-1.28,12.81,12.81,0,0,1,1.28-1.48c.26-.27.54-.52.8-.79s.38-.44.58-.66l.55-.57,2-2.06,1.26-1.28L8.36,9.6c.2-.21.4-.43.62-.62a1.29,1.29,0,0,1,.95-.27l.46.06c0-.07,0-.14,0-.21a1.28,1.28,0,0,1,.14-.47A3.56,3.56,0,0,1,11.6,6.61c.36-.3.71-.6,1.08-.89.13-.11.28-.21.42-.31Z"/><path class="cls-1" d="M23,15.58c-.22.27-.43.55-.65.81s-.54.67-.82,1l-.79.93-.85.95c-.56.61-1.13,1.21-1.74,1.77-.38.36-.76.71-1.16,1.05s-1,.82-1.54,1.21c-.27.2-.55.38-.82.57a.66.66,0,0,1-.46.08l.14-.22,1.78-2.55,1.23-1.8c.9-1.32,1.8-2.64,2.72-3.95.4-.57.84-1.11,1.26-1.66l0,0,.27.3L23,15.53a0,0,0,0,0,0,0Z"/><path class="cls-1" d="M13.82,15.57l0-.21c.05-.54.11-1.08.16-1.63s.09-.85.13-1.27.09-.84.13-1.27.06-.65.1-1,.09-.84.13-1.26.08-.85.13-1.27a1.33,1.33,0,0,1,0-.28s0,0,0-.06l.06,0,.26.22a3.65,3.65,0,0,0,1.06.58,2.91,2.91,0,0,1,.8.42A.34.34,0,0,1,17,9c0,.27-.06.54-.1.8-.06.43-.14.86-.22,1.28a27.31,27.31,0,0,1-1,3.43c-.51,1.47-1,2.95-1.5,4.42l-.34,1.06s0,0,0,.07h0l4.56-9.81c.11.13.22.23.31.34l1.05,1.34.23.28a.32.32,0,0,1,0,.36c-.12.28-.23.55-.36.82-.23.49-.46,1-.71,1.45A22.18,22.18,0,0,1,17.76,17c-.55.84-1.1,1.66-1.67,2.48S14.91,21.16,14.31,22c-.44.64-.89,1.28-1.34,1.91,0,0,0,0-.06.08a1.12,1.12,0,0,1-.05-.13l-.61-2-.56-1.76a.93.93,0,0,1,.09-.78,5.12,5.12,0,0,0,.64-1.83,4.34,4.34,0,0,0-.33-2.3,5.13,5.13,0,0,0-1-1.43,25.49,25.49,0,0,1-1.71-2,5.24,5.24,0,0,1-.3-.51.27.27,0,0,1,.06-.33.24.24,0,0,1,.27,0c.29.1.57.19.85.31a5.42,5.42,0,0,1,1.08.6A5,5,0,0,1,13,13.56a14.55,14.55,0,0,1,.73,1.67l.12.35Z"/><path class="cls-2" d="M19.37,5.08a.72.72,0,0,0-.5-.51L16.72,4a.18.18,0,0,1-.12-.22.2.2,0,0,1,.12-.12l2.15-.55a.7.7,0,0,0,.5-.5L19.92.48a.18.18,0,0,1,.34,0l.55,2.15a.72.72,0,0,0,.51.5l2.14.55a.17.17,0,0,1,.12.22.16.16,0,0,1-.12.12l-2.14.55a.73.73,0,0,0-.51.51l-.55,2.14a.17.17,0,0,1-.22.12.18.18,0,0,1-.12-.12Z"/><path class="cls-2" d="M22.89.7V2.1"/><path class="cls-2" d="M23.59,1.4h-1.4"/><path class="cls-2" d="M17.29,5.6v.7"/><path class="cls-2" d="M17.64,6h-.7"/></svg>