
<svg xmlns="http://www.w3.org/2000/svg" width="14" height="16.333" viewBox="0 0 14 16.333"><defs><style>.a{fill:#5734d3;}</style></defs><path class="a" d="M128,65.75A1.75,1.75,0,0,1,129.75,64h10.5A1.75,1.75,0,0,1,142,65.75V78.583a1.75,1.75,0,0,1-1.75,1.75h-10.5a1.75,1.75,0,0,1-1.75-1.75Zm4.667,8.612a2.917,2.917,0,0,0,4.78,2.243l1.807,1.807.055.048a.583.583,0,0,0,.77-.873l-1.9-1.9a2.917,2.917,0,1,0-5.515-1.327ZM130.333,67.5a.583.583,0,0,0,.515.579l.068,0h8.166l.068,0a.583.583,0,0,0,0-1.158l-.068,0h-8.166l-.068,0A.583.583,0,0,0,130.333,67.5Zm3.5,6.862a1.75,1.75,0,1,1,1.75,1.75A1.75,1.75,0,0,1,133.833,74.362Zm-3.5-4.529a.583.583,0,0,0,.515.579l.068,0h4.667l.068,0a.583.583,0,0,0,0-1.158l-.068,0h-4.667l-.068,0A.583.583,0,0,0,130.333,69.833Z" transform="translate(-128 -64)"/></svg>