<svg xmlns="http://www.w3.org/2000/svg" width="18.261" height="14.941" viewBox="0 0 18.261 14.941"><defs><style>.a{fill:#5734d3;}</style></defs><path class="a" d="M91.974,134.64a3.32,3.32,0,1,0-3.32-3.32A3.32,3.32,0,0,0,91.974,134.64Zm6.293,4.548a1.5,1.5,0,0,1,.348.986v1.106a1.66,1.66,0,0,1-1.66,1.66H86.994a1.66,1.66,0,0,1-1.66-1.66v-1.106a1.5,1.5,0,0,1,.347-.986,8.3,8.3,0,0,1,12.586,0Zm2.008-2.888a.83.83,0,0,1-.83-.83v-1.66h-1.66a.83.83,0,0,1,0-1.66h1.66v-1.66a.83.83,0,1,1,1.66,0v1.66h1.66a.83.83,0,1,1,0,1.66H101.1v1.66a.83.83,0,0,1-.83.83Z" transform="translate(-85.334 -127.999)"/></svg>